ply
format ascii 1.0
comment Created by Open3D
element vertex 1000
property double x
property double y
property double z
property double nx
property double ny
property double nz
end_header
0.300165 0.719805 1 0.1733 0.41558 0.57735
-0.418729 0.412284 1 -0.241753 0.238032 0.57735
0.00856474 0.654883 1 0.00494486 0.378097 0.57735
-0.972819 -0.214168 1 -0.561657 -0.12365 0.57735
-0.444342 0.987269 1 -0.256541 0.57 0.57735
0.421858 0.629207 1 0.24356 0.363273 0.57735
0.158865 0.694417 1 0.0917209 0.400922 0.57735
0.131917 0.401797 1 0.0761624 0.231978 0.57735
0.407612 0.467988 1 0.235335 0.270193 0.57735
0.290376 0.370402 1 0.167649 0.213852 0.57735
-0.310256 0.829803 1 -0.179126 0.479087 0.57735
-0.190431 0.897644 1 -0.109946 0.518255 0.57735
-0.999109 -0.861102 1 -0.576836 -0.497158 0.57735
-0.0772287 0.0715443 1 -0.044588 0.0413061 0.57735
-0.310711 0.328311 1 -0.179389 0.18955 0.57735
-0.874647 0.00560322 1 -0.504978 0.00323502 0.57735
-0.502263 0.520429 1 -0.289981 0.30047 0.57735
-0.930529 0.663547 1 -0.537241 0.383099 0.57735
-0.927448 0.490894 1 -0.535463 0.283418 0.57735
-0.427807 0.219441 1 -0.246995 0.126694 0.57735
-0.607815 -0.242743 1 -0.350922 -0.140147 0.57735
0.130641 0.144876 1 0.0754259 0.0836441 0.57735
0.764206 0.999946 1 0.441215 0.577319 0.57735
-0.870777 0.963183 1 -0.502743 0.556094 0.57735
-0.735594 -0.506645 1 -0.424695 -0.292511 0.57735
-0.404495 0.615943 1 -0.233535 0.355615 0.57735
0.555928 0.857059 1 0.320965 0.494823 0.57735
-0.267108 -0.134989 1 -0.154215 -0.0779359 0.57735
-0.193757 0.430185 1 -0.111866 0.248368 0.57735
0.253019 0.876539 1 0.146081 0.50607 0.57735
-0.543036 -0.102298 1 -0.313522 -0.0590618 0.57735
-0.841003 0.264184 1 -0.485553 0.152527 0.57735
-0.991 0.880318 1 -0.572154 0.508252 0.57735
0.0235834 0.781068 1 0.0136159 0.45095 0.57735
-0.442354 0.78833 1 -0.255393 0.455143 0.57735
0.857011 0.868263 1 0.494796 0.501292 0.57735
-0.510962 0.0795224 1 -0.295004 0.0459123 0.57735
-0.00697846 0.965246 1 -0.00402902 0.557285 0.57735
-0.721111 -0.366233 1 -0.416334 -0.211445 0.57735
-0.472088 -0.224867 1 -0.27256 -0.129827 0.57735
-0.414651 -0.0455473 1 -0.239399 -0.0262968 0.57735
-0.570914 0.202697 1 -0.329617 0.117027 0.57735
-0.816073 0.575105 1 -0.47116 0.332037 0.57735
-0.859646 -0.578243 1 -0.496317 -0.333849 0.57735
0.277762 0.59471 1 0.160366 0.343356 0.57735
-0.786819 0.106035 1 -0.45427 0.0612195 0.57735
-0.311848 0.516937 1 -0.180046 0.298454 0.57735
-0.00399816 0.186855 1 -0.00230834 0.107881 0.57735
-0.812063 -0.109308 1 -0.468845 -0.0631093 0.57735
-0.946967 0.154959 1 -0.546731 0.0894653 0.57735
0.418387 0.778506 1 0.241556 0.449471 0.57735
-0.936251 -0.738216 1 -0.540545 -0.426209 0.57735
-0.54786 0.678402 1 -0.316307 0.391676 0.57735
0.00535557 0.518987 1 0.00309204 0.299637 0.57735
-0.633983 0.450722 1 -0.36603 0.260225 0.57735
-0.874027 -0.425175 1 -0.50462 -0.245475 0.57735
-0.676451 -0.0758522 1 -0.390549 -0.0437933 0.57735
-0.279523 0.690654 1 -0.161383 0.398749 0.57735
-0.753638 -0.67759 1 -0.435113 -0.391207 0.57735
-0.844626 0.805662 1 -0.487645 0.465149 0.57735
-0.14099 0.285028 1 -0.0814005 0.164561 0.57735
-0.992112 0.332402 1 -0.572796 0.191913 0.57735
-0.243892 0.0145799 1 -0.140811 0.00841774 0.57735
-0.102755 0.736428 1 -0.0593257 0.425177 0.57735
-0.559808 0.867343 1 -0.323206 0.500761 0.57735
-0.673881 0.573765 1 -0.389065 0.331263 0.57735
-0.80941 0.413754 1 -0.467313 0.238881 0.57735
-0.360234 0.0858273 1 -0.207981 0.0495524 0.57735
-0.584221 -0.502021 1 -0.3373 -0.289842 0.57735
0.572641 0.668893 1 0.330615 0.386185 0.57735
-0.703411 0.865941 1 -0.406115 0.499951 0.57735
-0.669298 0.317395 1 -0.38642 0.183248 0.57735
-0.732968 -0.216774 1 -0.423179 -0.125155 0.57735
-0.851217 -0.278499 1 -0.49145 -0.160792 0.57735
-0.59358 -0.370108 1 -0.342704 -0.213682 0.57735
-0.0530996 0.381452 1 -0.0306571 0.220231 0.57735
-0.256996 0.193997 1 -0.148377 0.112004 0.57735
-0.661523 0.751001 1 -0.381931 0.433591 0.57735
-0.130862 -0.075515 1 -0.0755533 -0.0435986 0.57735
-0.159057 0.580374 1 -0.0918315 0.335079 0.57735
-0.651517 0.063296 1 -0.376153 0.036544 0.57735
0.72608 0.773995 1 0.419203 0.446866 0.57735
0.569339 0.201194 1 0.328708 0.116159 0.57735
0.780081 -0.323586 1 0.45038 -0.186822 0.57735
0.997758 0.75126 1 0.576056 0.43374 0.57735
0.450246 0.0710011 1 0.25995 0.0409925 0.57735
-0.72514 -0.99482 1 -0.41866 -0.57436 0.57735
0.684641 -0.615112 1 0.395278 -0.355135 0.57735
0.871715 0.129489 1 0.503285 0.0747607 0.57735
0.830567 0.429838 1 0.479528 0.248167 0.57735
0.273999 -0.247397 1 0.158193 -0.142835 0.57735
0.425498 0.320939 1 0.245661 0.185294 0.57735
0.812636 -0.120429 1 0.469176 -0.0695294 0.57735
-0.0818528 -0.207389 1 -0.0472578 -0.119736 0.57735
-0.3173 -0.733526 1 -0.183194 -0.423502 0.57735
0.527365 -0.352816 1 0.304475 -0.203699 0.57735
-0.139633 -0.505671 1 -0.0806172 -0.291949 0.57735
0.658534 -0.391656 1 0.380205 -0.226123 0.57735
0.963859 0.398906 1 0.556484 0.230308 0.57735
0.993256 -0.28065 1 0.573457 -0.162033 0.57735
-0.500189 -0.609939 1 -0.288784 -0.352149 0.57735
0.405153 -0.31153 1 0.233915 -0.179862 0.57735
-0.217278 -0.263016 1 -0.125445 -0.151852 0.57735
0.0102816 -0.451662 1 0.0059361 -0.260767 0.57735
0.454196 -0.878243 1 0.26223 -0.507054 0.57735
-0.987015 -0.998014 1 -0.569853 -0.576204 0.57735
-0.585534 -0.996105 1 -0.338058 -0.575101 0.57735
0.872103 -0.801704 1 0.503509 -0.462864 0.57735
0.233789 -0.890067 1 0.134978 -0.513881 0.57735
0.525371 -0.114474 1 0.303323 -0.0660916 0.57735
-0.243569 -0.842554 1 -0.140624 -0.486449 0.57735
-0.832034 -0.909587 1 -0.480375 -0.52515 0.57735
-0.640253 -0.727366 1 -0.36965 -0.419945 0.57735
0.263562 -0.632761 1 0.152168 -0.365325 0.57735
-0.453444 -0.468245 1 -0.261796 -0.270341 0.57735
0.90789 -0.515954 1 0.52417 -0.297886 0.57735
0.819766 0.259669 1 0.473292 0.14992 0.57735
0.739497 0.00562786 1 0.426949 0.00324925 0.57735
0.85885 -0.65508 1 0.495857 -0.37821 0.57735
0.0123845 -0.619025 1 0.00715019 -0.357394 0.57735
0.147407 -0.267233 1 0.0851057 -0.154287 0.57735
0.252621 -0.378832 1 0.145851 -0.218719 0.57735
0.7079 0.151032 1 0.408706 0.0871986 0.57735
0.990826 0.254106 1 0.572054 0.146708 0.57735
0.021983 -0.772582 1 0.0126919 -0.446051 0.57735
0.740039 -0.774627 1 0.427262 -0.447231 0.57735
0.429237 -0.498737 1 0.24782 -0.287946 0.57735
0.846942 0.708398 1 0.488982 0.408994 0.57735
0.146425 -0.567796 1 0.0845386 -0.327817 0.57735
0.698841 0.589123 1 0.403476 0.34013 0.57735
-0.491406 -0.754417 1 -0.283714 -0.435563 0.57735
-0.669249 -0.878229 1 -0.386391 -0.507046 0.57735
0.560071 0.349736 1 0.323357 0.20192 0.57735
-0.270615 -0.493987 1 -0.15624 -0.285204 0.57735
-0.0940629 -0.362807 1 -0.0543073 -0.209467 0.57735
0.842564 -0.940858 1 0.486455 -0.543205 0.57735
0.308824 0.116429 1 0.1783 0.0672202 0.57735
0.990322 0.0580407 1 0.571763 0.0335098 0.57735
-0.337554 -0.606671 1 -0.194887 -0.350261 0.57735
-0.154161 -0.636854 1 -0.0890047 -0.367688 0.57735
0.347514 -0.795122 1 0.200638 -0.459064 0.57735
0.0578514 0.0312549 1 0.0334005 0.018045 0.57735
0.684144 0.295164 1 0.394991 0.170413 0.57735
-0.0459233 -0.885657 1 -0.0265138 -0.511334 0.57735
0.176168 -0.131991 1 0.101711 -0.0762051 0.57735
0.87527 0.566554 1 0.505337 0.3271 0.57735
0.799147 -0.450584 1 0.461388 -0.260145 0.57735
0.565528 0.00928774 1 0.326508 0.00536228 0.57735
0.57321 -0.998366 1 0.330943 -0.576407 0.57735
0.561784 0.534009 1 0.324346 0.30831 0.57735
0.865948 -0.007078 1 0.499955 -0.00408649 0.57735
0.656188 -0.110894 1 0.37885 -0.0640248 0.57735
0.951965 -0.137798 1 0.549617 -0.0795575 0.57735
0.167672 -0.728151 1 0.0968054 -0.420398 0.57735
0.706731 -0.925826 1 0.408031 -0.534526 0.57735
0.692625 0.44378 1 0.399887 0.256217 0.57735
0.19192 0.0042515 1 0.110805 0.00245461 0.57735
0.277004 0.235206 1 0.159929 0.135796 0.57735
0.606611 -0.231059 1 0.350227 -0.133402 0.57735
0.569279 -0.527623 1 0.328673 -0.304623 0.57735
0.294792 -0.500289 1 0.170198 -0.288842 0.57735
0.4055 -0.0512877 1 0.234116 -0.0296109 0.57735
0.593538 -0.843933 1 0.34268 -0.487245 0.57735
0.0225595 -0.118102 1 0.0130247 -0.0681865 0.57735
-0.424383 -0.997732 1 -0.245017 -0.576041 0.57735
0.497114 -0.696744 1 0.287009 -0.402265 0.57735
-0.314942 -0.363354 1 -0.181832 -0.209783 0.57735
0.436016 -1 0.0468304 0.251734 -0.57735 0.0270376
0.739907 -1 0.704388 0.427186 -0.57735 0.406678
0.97598 -1 0.527561 0.563482 -0.57735 0.304588
0.0450363 -1 0.860491 0.0260017 -0.57735 0.496804
-0.116308 -1 0.586303 -0.0671504 -0.57735 0.338502
0.721167 -1 -0.20703 0.416366 -0.57735 -0.119529
0.667086 -1 -0.341417 0.385142 -0.57735 -0.197117
0.9832 -1 -0.8461 0.567651 -0.57735 -0.488496
0.145617 -1 0.0264502 0.0840721 -0.57735 0.015271
0.720935 -1 0.861484 0.416232 -0.57735 0.497378
-0.0675191 -1 0.115783 -0.0389822 -0.57735 0.0668471
0.112262 -1 0.728811 0.0648145 -0.57735 0.420779
0.554934 -1 -0.165622 0.320391 -0.57735 -0.095622
-0.360796 -1 0.622155 -0.208306 -0.57735 0.359201
0.848477 -1 0.0247498 0.489869 -0.57735 0.0142893
0.784067 -1 0.282519 0.452682 -0.57735 0.163113
0.741989 -1 -0.624813 0.428388 -0.57735 -0.360736
0.676951 -1 -0.066997 0.390838 -0.57735 -0.0386807
0.811486 -1 0.473867 0.468511 -0.57735 0.273587
-0.512095 -1 0.680311 -0.295658 -0.57735 0.392778
0.251157 -1 0.354794 0.145005 -0.57735 0.20484
0.453287 -1 0.850351 0.261705 -0.57735 0.490951
-0.0311695 -1 0.409796 -0.0179957 -0.57735 0.236596
0.107492 -1 0.333456 0.0620606 -0.57735 0.192521
0.52978 -1 -0.359477 0.305869 -0.57735 -0.207544
-0.167651 -1 0.426541 -0.0967932 -0.57735 0.246264
0.872158 -1 -0.25726 0.503541 -0.57735 -0.148529
0.66418 -1 -0.492385 0.383464 -0.57735 -0.284279
0.844323 -1 0.775927 0.48747 -0.57735 0.447982
0.519893 -1 0.580797 0.30016 -0.57735 0.335323
0.398203 -1 0.231612 0.229903 -0.57735 0.133721
-0.20369 -1 0.877281 -0.117601 -0.57735 0.506499
0.396784 -1 0.501636 0.229084 -0.57735 0.28962
-0.259316 -1 0.760196 -0.149716 -0.57735 0.438899
0.520154 -1 -0.502771 0.300311 -0.57735 -0.290275
0.434939 -1 0.695462 0.251112 -0.57735 0.401525
0.441871 -1 -0.102951 0.255115 -0.57735 -0.0594386
0.748127 -1 0.107253 0.431931 -0.57735 0.0619228
-0.297332 -1 0.366867 -0.171664 -0.57735 0.211811
0.922671 -1 0.893072 0.532704 -0.57735 0.515616
0.85625 -1 0.611153 0.494356 -0.57735 0.35285
0.295303 -1 0.113074 0.170493 -0.57735 0.065283
-0.107376 -1 0.292358 -0.0619933 -0.57735 0.168793
0.371672 -1 0.988901 0.214585 -0.57735 0.570942
0.990451 -1 0.711381 0.571837 -0.57735 0.410716
0.590678 -1 0.728852 0.341028 -0.57735 0.420803
0.900882 -1 0.199988 0.520124 -0.57735 0.115463
-0.104039 -1 0.972925 -0.060067 -0.57735 0.561718
0.550268 -1 0.11732 0.317698 -0.57735 0.0677346
-0.503789 -1 0.816243 -0.290862 -0.57735 0.471258
-0.260844 -1 0.996958 -0.150598 -0.57735 0.575594
0.298607 -1 -0.188285 0.172401 -0.57735 -0.108706
0.162993 -1 0.15814 0.0941042 -0.57735 0.0913022
0.867266 -1 -0.101176 0.500716 -0.57735 -0.0584141
0.826644 -1 -0.727585 0.477263 -0.57735 -0.420071
0.298839 -1 0.640954 0.172535 -0.57735 0.370055
-0.302847 -1 0.502728 -0.174849 -0.57735 0.29025
0.858297 -1 -0.484585 0.495538 -0.57735 -0.279775
0.452795 -1 0.368159 0.261421 -0.57735 0.212557
0.574785 -1 0.442491 0.331852 -0.57735 0.255472
0.153344 -1 0.988269 0.0885332 -0.57735 0.570578
0.235933 -1 0.522895 0.136216 -0.57735 0.301894
0.898571 -1 -0.613755 0.51879 -0.57735 -0.354352
0.423851 -1 -0.24836 0.244711 -0.57735 -0.143391
0.290218 -1 -0.0364253 0.167557 -0.57735 -0.0210302
-0.341057 -1 0.876532 -0.19691 -0.57735 0.506066
0.314286 -1 0.805346 0.181453 -0.57735 0.464967
0.15087 -1 -0.109426 0.0871049 -0.57735 -0.0631774
0.811828 -1 -0.367218 0.468709 -0.57735 -0.212013
-0.0391472 -1 0.744531 -0.0226016 -0.57735 0.429855
0.684128 -1 0.367865 0.394982 -0.57735 0.212387
0.643817 -1 0.23475 0.371708 -0.57735 0.135533
0.0823103 -1 0.468946 0.0475218 -0.57735 0.270746
0.192138 -1 0.854568 0.110931 -0.57735 0.493385
0.0490599 -1 0.205039 0.0283248 -0.57735 0.118379
-0.645488 -1 0.867062 -0.372673 -0.57735 0.500599
0.677117 -1 0.570306 0.390934 -0.57735 0.329266
-0.715452 -1 0.169842 -0.413066 -0.57735 0.0980584
-0.0481208 -1 -0.414447 -0.0277826 -0.57735 -0.239281
-0.699545 -1 -0.440263 -0.403882 -0.57735 -0.254186
0.277555 -1 -0.86107 0.160247 -0.57735 -0.497139
-0.656377 -1 -0.592714 -0.378959 -0.57735 -0.342204
-0.886197 -1 0.389165 -0.511646 -0.57735 0.224685
0.860877 -1 -0.906868 0.497027 -0.57735 -0.52358
0.350308 -1 -0.537224 0.202251 -0.57735 -0.310166
-0.712541 -1 0.523435 -0.411386 -0.57735 0.302205
-0.404702 -1 0.297707 -0.233655 -0.57735 0.171881
-0.535423 -1 -0.254453 -0.309127 -0.57735 -0.146908
-0.215959 -1 -0.0676258 -0.124684 -0.57735 -0.0390438
0.447507 -1 -0.868827 0.258368 -0.57735 -0.501617
-0.58355 -1 0.0257256 -0.336913 -0.57735 0.0148527
-0.473038 -1 -0.836098 -0.273108 -0.57735 -0.482722
-0.775499 -1 0.00873097 -0.447735 -0.57735 0.00504083
-0.106759 -1 -0.936458 -0.0616371 -0.57735 -0.540664
-0.743615 -1 -0.75558 -0.429326 -0.57735 -0.436234
-0.437435 -1 -0.685463 -0.252553 -0.57735 -0.395753
-0.900362 -1 0.0515231 -0.519824 -0.57735 0.0297469
0.284177 -1 -0.310652 0.16407 -0.57735 -0.179355
-0.642946 -1 -0.868201 -0.371205 -0.57735 -0.501256
0.0298933 -1 -0.86014 0.0172589 -0.57735 -0.496602
-0.796437 -1 -0.183367 -0.459823 -0.57735 -0.105867
-0.195595 -1 -0.763449 -0.112927 -0.57735 -0.440777
-0.345246 -1 -0.815324 -0.199328 -0.57735 -0.470727
-0.665903 -1 -0.226258 -0.384459 -0.57735 -0.13063
-0.816071 -1 0.245248 -0.471159 -0.57735 0.141594
-0.00415568 -1 -0.697255 -0.00239928 -0.57735 -0.402561
-0.864034 -1 0.518149 -0.49885 -0.57735 0.299154
0.104215 -1 -0.617591 0.0601688 -0.57735 -0.356566
0.525774 -1 -0.75138 0.303556 -0.57735 -0.43381
0.0796341 -1 -0.37167 0.0459768 -0.57735 -0.214584
-0.681315 -1 -0.0881584 -0.393357 -0.57735 -0.0508983
-0.334394 -1 -0.411943 -0.193062 -0.57735 -0.237836
0.122715 -1 -0.242533 0.0708493 -0.57735 -0.140027
-0.382818 -1 -0.957041 -0.22102 -0.57735 -0.552548
0.231078 -1 -0.601741 0.133413 -0.57735 -0.347415
-0.292078 -1 -0.231919 -0.168631 -0.57735 -0.133898
-0.0272827 -1 -0.571495 -0.0157517 -0.57735 -0.329953
-0.886179 -1 -0.787491 -0.511636 -0.57735 -0.454658
-0.568443 -1 0.491277 -0.328191 -0.57735 0.283639
-0.296296 -1 0.057387 -0.171066 -0.57735 0.0331324
-0.440815 -1 -0.00139274 -0.254505 -0.57735 -0.000804098
-0.597818 -1 -0.72261 -0.34515 -0.57735 -0.417199
-0.548161 -1 -0.510176 -0.316481 -0.57735 -0.29455
-0.0142613 -1 -0.194208 -0.00823378 -0.57735 -0.112126
-0.897716 -1 0.684147 -0.518297 -0.57735 0.394993
-0.282009 -1 -0.623453 -0.162818 -0.57735 -0.35995
-0.631589 -1 0.619294 -0.364648 -0.57735 0.357549
-0.44219 -1 0.426849 -0.255299 -0.57735 0.246441
-0.0328441 -1 -0.0519847 -0.0189626 -0.57735 -0.0300134
-0.505773 -1 -0.994179 -0.292008 -0.57735 -0.57399
0.611319 -1 -0.862877 0.352945 -0.57735 -0.498183
0.58581 -1 -0.635827 0.338217 -0.57735 -0.367095
-0.939429 -1 0.186321 -0.54238 -0.57735 0.107572
0.327086 -1 -0.71419 0.188843 -0.57735 -0.412338
-0.133541 -1 -0.640028 -0.0770997 -0.57735 -0.36952
-0.841627 -1 -0.663504 -0.485913 -0.57735 -0.383074
-0.34378 -1 -0.0802106 -0.198481 -0.57735 -0.0463096
-0.780337 -1 0.641458 -0.450528 -0.57735 0.370346
-0.895731 -1 -0.497582 -0.517151 -0.57735 -0.287279
-0.15223 -1 -0.19558 -0.0878899 -0.57735 -0.112918
0.165786 -1 -0.765711 0.0957166 -0.57735 -0.442084
-0.736957 -1 0.365029 -0.425483 -0.57735 0.210749
-0.378655 -1 0.160895 -0.218617 -0.57735 0.0928929
0.392407 -1 -0.394902 0.226556 -0.57735 -0.227997
-0.997768 -1 -0.684082 -0.576062 -0.57735 -0.394955
-0.405012 -1 -0.536391 -0.233834 -0.57735 -0.309686
-0.882548 -1 -0.0928792 -0.509539 -0.57735 -0.0536238
-0.992187 -1 0.318353 -0.572839 -0.57735 0.183801
-0.881084 -1 -0.31936 -0.508694 -0.57735 -0.184383
0.183584 -1 -0.965775 0.105992 -0.57735 -0.55759
-0.50575 -1 0.2237 -0.291995 -0.57735 0.129153
-0.202309 -1 -0.349073 -0.116803 -0.57735 -0.201537
0.230774 -1 -0.4451 0.133237 -0.57735 -0.256978
-0.819471 -1 0.802565 -0.473122 -0.57735 0.463361
-0.487059 -1 -0.387411 -0.281204 -0.57735 -0.223672
-0.520487 -1 -0.10906 -0.300504 -0.57735 -0.062966
-0.176095 -1 -0.494721 -0.101668 -0.57735 -0.285627
0.67494 -1 -0.753012 0.389677 -0.57735 -0.434752
-0.233275 -1 0.191772 -0.134681 -0.57735 0.110719
-0.576236 -1 0.343566 -0.33269 -0.57735 0.198358
-1 -0.600466 -0.318529 -0.57735 -0.346679 -0.183903
-1 -0.482613 -0.261799 -0.57735 -0.278637 -0.15115
-1 -0.0575824 0.836406 -0.57735 -0.0332452 0.482899
-1 -0.0721581 0.976507 -0.57735 -0.0416605 0.563787
-1 -0.673647 0.0600161 -0.57735 -0.38893 0.0346503
-1 0.550301 0.919932 -0.57735 0.317716 0.531123
-1 -0.454473 0.55489 -0.57735 -0.26239 0.320366
-1 -0.339441 0.755455 -0.57735 -0.195977 0.436162
-1 -0.0731033 0.540452 -0.57735 -0.0422062 0.31203
-1 -0.0547176 0.698037 -0.57735 -0.0315912 0.403012
-1 -0.839402 0.503063 -0.57735 -0.484629 0.290443
-1 -0.266413 -0.0292871 -0.57735 -0.153814 -0.0169089
-1 -0.815295 0.0552317 -0.57735 -0.470711 0.031888
-1 -0.998666 0.550127 -0.57735 -0.57658 0.317616
-1 -0.476439 0.997738 -0.57735 -0.275072 0.576044
-1 -0.991103 -0.989321 -0.57735 -0.572214 -0.571185
-1 -0.352953 -0.307217 -0.57735 -0.203778 -0.177372
-1 0.39601 0.695945 -0.57735 0.228636 0.401804
-1 -0.873048 -0.782641 -0.57735 -0.504055 -0.451858
-1 -0.992275 -0.375562 -0.57735 -0.57289 -0.216831
-1 -0.232707 0.333668 -0.57735 -0.134354 0.192643
-1 0.394223 0.401715 -0.57735 0.227605 0.23193
-1 0.198216 0.610023 -0.57735 0.11444 0.352197
-1 -0.908542 0.686187 -0.57735 -0.524547 0.39617
-1 -0.478038 0.0187964 -0.57735 -0.275996 0.0108521
-1 -0.707519 0.210863 -0.57735 -0.408486 0.121742
-1 0.0833149 0.441441 -0.57735 0.0481019 0.254866
-1 -0.854363 0.181503 -0.57735 -0.493267 0.104791
-1 0.182075 0.297163 -0.57735 0.105121 0.171567
-1 -0.740455 0.585292 -0.57735 -0.427502 0.337918
-1 -0.372724 0.101501 -0.57735 -0.215192 0.0586018
-1 -0.678082 0.469151 -0.57735 -0.391491 0.270865
-1 -0.498603 0.725154 -0.57735 -0.287869 0.418668
-1 -0.948593 -0.0507498 -0.57735 -0.547671 -0.0293004
-1 0.1824 0.878131 -0.57735 0.105309 0.506989
-1 -0.183438 0.087865 -0.57735 -0.105908 0.0507289
-1 0.0518631 0.93943 -0.57735 0.0299432 0.54238
-1 -0.978391 -0.863423 -0.57735 -0.564874 -0.498498
-1 -0.224801 0.854242 -0.57735 -0.129789 0.493197
-1 0.341173 0.562702 -0.57735 0.196976 0.324876
-1 -0.193431 0.711744 -0.57735 -0.111677 0.410926
-1 -0.838312 -0.154438 -0.57735 -0.483999 -0.0891647
-1 -0.337203 0.933963 -0.57735 -0.194684 0.539224
-1 -0.73396 -0.261465 -0.57735 -0.423752 -0.150957
-1 0.0682049 0.763047 -0.57735 0.0393781 0.440546
-1 -0.60054 0.838338 -0.57735 -0.346722 0.484015
-1 0.0649229 0.206026 -0.57735 0.0374833 0.118949
-1 -0.106116 0.22158 -0.57735 -0.0612663 0.127929
-1 -0.966115 -0.233172 -0.57735 -0.557787 -0.134622
-1 -0.682649 0.707716 -0.57735 -0.394128 0.4086
-1 0.211241 0.477322 -0.57735 0.12196 0.275582
-1 0.228694 0.731905 -0.57735 0.132037 0.422565
-1 0.518112 0.64974 -0.57735 0.299132 0.375127
-1 -0.831738 0.315687 -0.57735 -0.480204 0.182262
-1 -0.847976 -0.368905 -0.57735 -0.489579 -0.212987
-1 -0.303987 -0.188325 -0.57735 -0.175507 -0.108729
-1 -0.112218 -0.0387072 -0.57735 -0.0647893 -0.0223476
-1 -0.6844 -0.684281 -0.57735 -0.395139 -0.39507
-1 -0.924823 0.875303 -0.57735 -0.533947 0.505356
-1 -0.0476391 0.371028 -0.57735 -0.0275044 0.214213
-1 0.768329 0.935023 -0.57735 0.443595 0.539836
-1 -0.725277 -0.417685 -0.57735 -0.418739 -0.24115
-1 -0.402222 0.273574 -0.57735 -0.232223 0.157948
-1 -0.259284 0.204591 -0.57735 -0.149698 0.118121
-1 -0.904437 -0.501431 -0.57735 -0.522177 -0.289501
-1 0.520901 0.778703 -0.57735 0.300742 0.449584
-1 -0.34301 0.441743 -0.57735 -0.198037 0.255041
-1 -0.459642 -0.414425 -0.57735 -0.265374 -0.239268
-1 -0.311016 0.604885 -0.57735 -0.179565 0.34923
-1 -0.18347 0.466628 -0.57735 -0.105927 0.269408
-1 0.385852 0.84065 -0.57735 0.222772 0.485349
-1 -0.394287 -0.101437 -0.57735 -0.227642 -0.0585644
-1 -0.45419 0.857875 -0.57735 -0.262227 0.495294
-1 0.0517426 0.593421 -0.57735 0.0298736 0.342612
-1 -0.674823 -0.147696 -0.57735 -0.389609 -0.0852726
-1 -0.659654 -0.543073 -0.57735 -0.380852 -0.313543
-1 -0.857778 -0.652189 -0.57735 -0.495239 -0.376541
-1 -0.541362 0.155133 -0.57735 -0.312556 0.0895664
-1 -0.500475 0.378764 -0.57735 -0.28895 0.218679
-1 -0.595421 -0.0438433 -0.57735 -0.343767 -0.025313
-1 -0.0285371 0.0856868 -0.57735 -0.0164759 0.0494713
-1 -0.597258 0.591048 -0.57735 -0.344827 0.341242
-1 -0.582266 0.274877 -0.57735 -0.336171 0.1587
-1 0.681234 0.823347 -0.57735 0.393311 0.47536
-1 -0.766808 0.83998 -0.57735 -0.442717 0.484963
-1 0.352274 0.119013 -0.57735 0.203386 0.068712
-1 -0.23035 -0.639666 -0.57735 -0.132993 -0.369311
-1 0.613883 0.5681 -0.57735 0.354426 0.327993
-1 0.581963 -0.636909 -0.57735 0.335996 -0.36772
-1 -0.223225 -0.353184 -0.57735 -0.128879 -0.203911
-1 0.871275 -0.0549041 -0.57735 0.503031 -0.0316989
-1 0.763225 -0.311214 -0.57735 0.440648 -0.179679
-1 0.701287 -0.939624 -0.57735 0.404888 -0.542492
-1 -0.851384 -0.980995 -0.57735 -0.491547 -0.566378
-1 0.58934 -0.284024 -0.57735 0.340255 -0.163982
-1 0.634746 0.330039 -0.57735 0.366471 0.190548
-1 0.721931 0.233524 -0.57735 0.416807 0.134825
-1 0.0091431 -0.867732 -0.57735 0.00527877 -0.500985
-1 0.504469 -0.144558 -0.57735 0.291255 -0.0834606
-1 0.761072 -0.457013 -0.57735 0.439405 -0.263856
-1 -0.342192 -0.994337 -0.57735 -0.197565 -0.574081
-1 0.845538 0.269093 -0.57735 0.488172 0.155361
-1 0.912257 -0.390333 -0.57735 0.526692 -0.225359
-1 0.885778 -0.671194 -0.57735 0.511404 -0.387514
-1 0.203075 -0.982556 -0.57735 0.117245 -0.567279
-1 -0.51528 -0.722366 -0.57735 -0.297497 -0.417058
-1 0.642663 -0.793802 -0.57735 0.371042 -0.458302
-1 0.180831 -0.533484 -0.57735 0.104403 -0.308007
-1 -0.378683 -0.545459 -0.57735 -0.218633 -0.314921
-1 -0.112686 -0.419227 -0.57735 -0.0650591 -0.242041
-1 0.986739 0.54937 -0.57735 0.569694 0.317179
-1 -0.0822933 -0.648293 -0.57735 -0.0475121 -0.374292
-1 0.819554 0.121384 -0.57735 0.47317 0.0700812
-1 0.230497 -0.666231 -0.57735 0.133077 -0.384649
-1 0.384107 -0.626502 -0.57735 0.221764 -0.361711
-1 -0.280879 -0.465374 -0.57735 -0.162166 -0.268684
-1 -0.0801446 -0.292772 -0.57735 -0.0462715 -0.169032
-1 0.744883 -0.00634133 -0.57735 0.430059 -0.00366117
-1 0.848966 0.406984 -0.57735 0.490151 0.234972
-1 0.344565 -0.78047 -0.57735 0.198935 -0.450605
-1 -0.503457 -0.534974 -0.57735 -0.290671 -0.308868
-1 0.955231 0.122214 -0.57735 0.551503 0.0705605
-1 0.204719 -0.849121 -0.57735 0.118195 -0.49024
-1 -0.638663 -0.988719 -0.57735 -0.368732 -0.570837
-1 0.812783 0.665808 -0.57735 0.46926 0.384405
-1 0.401681 -0.0280116 -0.57735 0.23191 -0.0161725
-1 0.490628 -0.533821 -0.57735 0.283264 -0.308202
-1 -0.429164 -0.82893 -0.57735 -0.247778 -0.478583
-1 0.843838 -0.916049 -0.57735 0.48719 -0.528881
-1 0.634639 0.0788631 -0.57735 0.366409 0.0455316
-1 0.617204 -0.452259 -0.57735 0.356343 -0.261112
-1 -0.13568 -0.79445 -0.57735 -0.078335 -0.458676
-1 0.797415 0.524095 -0.57735 0.460388 0.302587
-1 0.802463 -0.78517 -0.57735 0.463302 -0.453318
-1 0.368026 -0.267172 -0.57735 0.21248 -0.154252
-1 0.685798 -0.172872 -0.57735 0.395946 -0.0998077
-1 0.486328 -0.7616 -0.57735 0.280782 -0.43971
-1 -0.0178859 -0.531855 -0.57735 -0.0103264 -0.307067
-1 0.460857 -0.916692 -0.57735 0.266076 -0.529253
-1 0.124911 -0.182398 -0.57735 0.0721176 -0.105308
-1 0.087447 -0.652208 -0.57735 0.0504876 -0.376552
-1 -0.161428 -0.186606 -0.57735 -0.0932004 -0.107737
-1 -0.0181338 -0.164064 -0.57735 -0.0104695 -0.0947224
-1 0.337666 0.262725 -0.57735 0.194952 0.151684
-1 0.0527154 -0.309824 -0.57735 0.0304353 -0.178877
-1 0.947192 -0.98506 -0.57735 0.546861 -0.568725
-1 -0.766637 -0.86037 -0.57735 -0.442618 -0.496735
-1 0.895848 -0.536662 -0.57735 0.517218 -0.309842
-1 -0.384615 -0.686766 -0.57735 -0.222058 -0.396505
-1 0.858186 -0.201607 -0.57735 0.495474 -0.116398
-1 0.927242 -0.797852 -0.57735 0.535344 -0.46064
-1 0.339705 -0.433217 -0.57735 0.196129 -0.250118
-1 0.8553 0.80541 -0.57735 0.493807 0.465004
-1 0.711053 -0.580117 -0.57735 0.410526 -0.334931
-1 -0.192973 -0.947394 -0.57735 -0.111413 -0.546978
-1 0.465009 -0.364121 -0.57735 0.268473 -0.210226
-1 0.316673 -0.149407 -0.57735 0.182832 -0.0862603
-1 0.172135 -0.401037 -0.57735 0.099382 -0.231539
-1 0.233335 0.0269301 -0.57735 0.134716 0.0155481
-1 0.509307 0.470699 -0.57735 0.294049 0.271758
-1 -0.288316 -0.839145 -0.57735 -0.166459 -0.484481
-1 0.200719 0.145019 -0.57735 0.115885 0.0837265
-1 -0.556581 -0.863838 -0.57735 -0.321342 -0.498737
-1 0.586607 -0.0527565 -0.57735 0.338678 -0.030459
-1 0.0419663 -0.040107 -0.57735 0.0242293 -0.0231558
-1 0.550397 0.178096 -0.57735 0.317772 0.102824
-1 0.234543 -0.263244 -0.57735 0.135414 -0.151984
0.77503 0.695373 -1 0.447464 0.401474 -0.57735
0.129491 0.28376 -1 0.0747614 0.163829 -0.57735
-0.66847 0.959582 -1 -0.385941 0.554015 -0.57735
0.607591 -0.39766 -1 0.350793 -0.229589 -0.57735
0.428541 0.653263 -1 0.247418 0.377162 -0.57735
0.65286 -0.610129 -1 0.376929 -0.352258 -0.57735
0.695263 0.830281 -1 0.40141 0.479363 -0.57735
0.419967 0.0817301 -1 0.242468 0.0471869 -0.57735
0.947968 -0.671681 -1 0.54731 -0.387795 -0.57735
0.635649 0.625146 -1 0.366992 0.360928 -0.57735
0.601242 0.0824745 -1 0.347127 0.0476167 -0.57735
0.321628 -0.0398931 -1 0.185692 -0.0230323 -0.57735
0.990875 0.955297 -1 0.572082 0.551541 -0.57735
-0.352691 0.509963 -1 -0.203626 0.294427 -0.57735
0.869761 0.790858 -1 0.502157 0.456602 -0.57735
-0.362794 0.701048 -1 -0.209459 0.40475 -0.57735
0.78908 0.151824 -1 0.455575 0.0876559 -0.57735
0.451806 0.49368 -1 0.260851 0.285026 -0.57735
0.0527274 0.0440063 -1 0.0304422 0.025407 -0.57735
0.872249 -0.0203934 -1 0.503593 -0.0117741 -0.57735
0.514603 0.969946 -1 0.297106 0.559999 -0.57735
0.648002 -0.0866199 -1 0.374124 -0.05001 -0.57735
0.652096 0.245383 -1 0.376488 0.141672 -0.57735
0.324382 0.546864 -1 0.187282 0.315732 -0.57735
0.459708 -0.447834 -1 0.265413 -0.258557 -0.57735
-0.0187537 0.851058 -1 -0.0108274 0.491359 -0.57735
-0.529991 0.901554 -1 -0.30599 0.520513 -0.57735
-0.0615575 0.429046 -1 -0.0355402 0.24771 -0.57735
-0.309128 0.370701 -1 -0.178475 0.214024 -0.57735
0.281162 0.700713 -1 0.162329 0.404557 -0.57735
0.265475 0.414677 -1 0.153272 0.239414 -0.57735
-0.574773 0.734058 -1 -0.331845 0.423808 -0.57735
-0.173818 0.774144 -1 -0.100354 0.446952 -0.57735
0.340414 -0.198857 -1 0.196538 -0.11481 -0.57735
0.13429 0.451841 -1 0.0775324 0.260871 -0.57735
0.810738 0.350016 -1 0.46808 0.202082 -0.57735
0.918223 0.100309 -1 0.530136 0.0579137 -0.57735
0.91591 -0.185145 -1 0.528801 -0.106894 -0.57735
0.481024 -0.0420038 -1 0.27772 -0.0242509 -0.57735
-0.477457 0.6041 -1 -0.27566 0.348777 -0.57735
-0.455091 0.793832 -1 -0.262747 0.458319 -0.57735
0.554632 0.786548 -1 0.320217 0.454114 -0.57735
0.153447 0.593043 -1 0.0885926 0.342394 -0.57735
0.996251 0.209648 -1 0.575186 0.12104 -0.57735
0.528667 0.20865 -1 0.305226 0.120464 -0.57735
0.748906 -0.704811 -1 0.432381 -0.406923 -0.57735
0.657371 -0.229548 -1 0.379533 -0.132529 -0.57735
0.881815 -0.465887 -1 0.509116 -0.26898 -0.57735
0.947293 0.327231 -1 0.54692 0.188927 -0.57735
-0.245343 0.633619 -1 -0.141649 0.36582 -0.57735
-0.167556 0.340229 -1 -0.0967388 0.196431 -0.57735
0.577924 0.473226 -1 0.333665 0.273217 -0.57735
0.242128 0.959036 -1 0.139793 0.5537 -0.57735
0.734821 0.484592 -1 0.424249 0.279779 -0.57735
0.245652 0.827628 -1 0.141827 0.477831 -0.57735
0.400922 -0.318637 -1 0.231473 -0.183965 -0.57735
0.375445 0.948508 -1 0.216763 0.547621 -0.57735
-0.0543263 0.678465 -1 -0.0313653 0.391712 -0.57735
-0.83791 0.880925 -1 -0.483767 0.508602 -0.57735
-0.700093 0.788544 -1 -0.404199 0.455266 -0.57735
-0.374846 0.950948 -1 -0.216418 0.54903 -0.57735
0.392171 0.788421 -1 0.22642 0.455195 -0.57735
0.394684 0.243668 -1 0.227871 0.140682 -0.57735
0.110733 0.724705 -1 0.0639316 0.418409 -0.57735
0.0278208 0.177038 -1 0.0160623 0.102213 -0.57735
0.866645 0.476899 -1 0.500358 0.275338 -0.57735
0.804206 0.953771 -1 0.464309 0.55066 -0.57735
0.81319 -0.573291 -1 0.469496 -0.33099 -0.57735
0.108403 0.859184 -1 0.0625867 0.49605 -0.57735
0.880567 0.620876 -1 0.508396 0.358463 -0.57735
0.662102 0.993553 -1 0.382265 0.573628 -0.57735
0.743821 0.0181597 -1 0.429446 0.0104845 -0.57735
0.862368 -0.32278 -1 0.497888 -0.186357 -0.57735
0.487081 0.363466 -1 0.281217 0.209847 -0.57735
0.189252 0.15659 -1 0.109265 0.0904074 -0.57735
0.732873 -0.340198 -1 0.423124 -0.196413 -0.57735
0.192727 0.0159403 -1 0.111271 0.00920313 -0.57735
-0.268692 0.858524 -1 -0.155129 0.495669 -0.57735
-0.139583 0.899435 -1 -0.0805882 0.519289 -0.57735
0.494103 -0.183553 -1 0.28527 -0.105974 -0.57735
0.773959 -0.148676 -1 0.446846 -0.0858382 -0.57735
-0.201871 0.459751 -1 -0.11655 0.265438 -0.57735
0.999109 -0.543961 -1 0.576836 -0.314056 -0.57735
-0.00917285 0.296748 -1 -0.00529595 0.171328 -0.57735
-0.61762 0.192812 -1 -0.356583 0.11132 -0.57735
-0.269116 0.24803 -1 -0.155374 0.1432 -0.57735
-0.704562 -0.686225 -1 -0.406779 -0.396192 -0.57735
-0.65623 -0.555298 -1 -0.378875 -0.320602 -0.57735
0.264833 -0.85619 -1 0.152901 -0.494322 -0.57735
-0.470028 -0.0745744 -1 -0.271371 -0.0430556 -0.57735
0.29608 -0.464522 -1 0.170942 -0.268192 -0.57735
0.243456 -0.333101 -1 0.14056 -0.192316 -0.57735
-0.530471 -0.651638 -1 -0.306268 -0.376223 -0.57735
-0.283373 -0.0168668 -1 -0.163606 -0.00973803 -0.57735
0.636434 -0.81533 -1 0.367446 -0.470731 -0.57735
-0.0161425 -0.396267 -1 -0.00931987 -0.228785 -0.57735
-0.521208 0.0715001 -1 -0.30092 0.0412806 -0.57735
0.0834132 -0.50988 -1 0.0481587 -0.29438 -0.57735
0.718976 -0.991561 -1 0.415101 -0.572478 -0.57735
0.773239 -0.844266 -1 0.44643 -0.487437 -0.57735
-0.871619 0.428798 -1 -0.503229 0.247567 -0.57735
0.0293177 -0.860308 -1 0.0169266 -0.496699 -0.57735
-0.536778 -0.491069 -1 -0.309909 -0.283519 -0.57735
-0.189779 -0.365166 -1 -0.109569 -0.210829 -0.57735
-0.894153 -0.270623 -1 -0.51624 -0.156244 -0.57735
0.0458237 -0.285504 -1 0.0264563 -0.164836 -0.57735
-0.606613 -0.787351 -1 -0.350228 -0.454578 -0.57735
-0.997495 0.365976 -1 -0.575904 0.211296 -0.57735
-0.0494435 -0.0993373 -1 -0.0285462 -0.0573524 -0.57735
0.00371551 -0.617616 -1 0.00214515 -0.356581 -0.57735
-0.413798 -0.704823 -1 -0.238907 -0.40693 -0.57735
-0.422982 -0.554632 -1 -0.244209 -0.320217 -0.57735
-0.907425 -0.730137 -1 -0.523902 -0.421545 -0.57735
-0.124104 0.0223414 -1 -0.0716513 0.0128988 -0.57735
0.575911 -0.938656 -1 0.332503 -0.541933 -0.57735
-0.434238 0.250848 -1 -0.250707 0.144827 -0.57735
-0.79309 -0.978311 -1 -0.457891 -0.564828 -0.57735
0.524808 -0.745334 -1 0.302998 -0.430319 -0.57735
-0.991434 -0.489456 -1 -0.572405 -0.282588 -0.57735
0.0329902 -0.993709 -1 0.0190469 -0.573718 -0.57735
-0.618179 -0.310733 -1 -0.356906 -0.179402 -0.57735
0.422371 -0.669222 -1 0.243856 -0.386375 -0.57735
-0.729365 -0.0762838 -1 -0.421099 -0.0440425 -0.57735
-0.686351 -0.430507 -1 -0.396265 -0.248554 -0.57735
-0.717777 0.304186 -1 -0.414409 0.175622 -0.57735
-0.160526 -0.675253 -1 -0.09268 -0.389858 -0.57735
-0.652601 0.438844 -1 -0.376779 0.253367 -0.57735
-0.446006 -0.858813 -1 -0.257502 -0.495836 -0.57735
0.0738777 -0.72863 -1 0.0426533 -0.420675 -0.57735
-0.566172 0.324547 -1 -0.32688 0.187377 -0.57735
-0.911173 0.586299 -1 -0.526066 0.3385 -0.57735
0.419384 -0.857509 -1 0.242132 -0.495083 -0.57735
-0.759209 -0.255829 -1 -0.43833 -0.147703 -0.57735
-0.818061 -0.380425 -1 -0.472308 -0.219639 -0.57735
-0.85563 -0.0223382 -1 -0.493998 -0.0128969 -0.57735
-0.772064 0.677403 -1 -0.445752 0.391099 -0.57735
0.306154 -0.99236 -1 0.176758 -0.572939 -0.57735
-0.837921 -0.626276 -1 -0.483774 -0.361581 -0.57735
-0.235098 -0.937942 -1 -0.135734 -0.541521 -0.57735
0.456227 -0.980662 -1 0.263403 -0.566186 -0.57735
-0.637811 0.599476 -1 -0.36824 0.346108 -0.57735
-0.637272 -0.955011 -1 -0.367929 -0.551376 -0.57735
-0.125174 -0.510357 -1 -0.0722693 -0.294655 -0.57735
-0.360462 -0.163152 -1 -0.208113 -0.094196 -0.57735
0.156917 -0.216144 -1 0.0905962 -0.124791 -0.57735
-0.904733 0.106387 -1 -0.522348 0.0614225 -0.57735
-0.312786 -0.463752 -1 -0.180587 -0.267747 -0.57735
-0.450308 0.390424 -1 -0.259985 0.225412 -0.57735
-0.398234 0.130548 -1 -0.229921 0.0753718 -0.57735
-0.610339 -0.153498 -1 -0.35238 -0.0886221 -0.57735
-0.690265 0.078579 -1 -0.398524 0.0453676 -0.57735
0.211046 -0.706947 -1 0.121847 -0.408156 -0.57735
-0.109863 -0.890754 -1 -0.0634294 -0.514277 -0.57735
0.528092 -0.561893 -1 0.304894 -0.324409 -0.57735
0.308778 -0.605382 -1 0.178273 -0.349518 -0.57735
-0.36495 -0.308459 -1 -0.210704 -0.178089 -0.57735
-0.782199 -0.512502 -1 -0.451603 -0.295893 -0.57735
-0.195275 -0.166481 -1 -0.112742 -0.0961178 -0.57735
-0.288454 -0.623912 -1 -0.166539 -0.360216 -0.57735
-0.893785 0.756756 -1 -0.516027 0.436913 -0.57735
-0.0860443 -0.279626 -1 -0.0496777 -0.161442 -0.57735
0.0905505 -0.0997354 -1 0.0522794 -0.0575823 -0.57735
-0.250046 -0.779777 -1 -0.144364 -0.450205 -0.57735
-0.783262 0.549833 -1 -0.452217 0.317446 -0.57735
-0.163467 0.15552 -1 -0.0943775 0.0897893 -0.57735
-0.49467 -0.239455 -1 -0.285598 -0.138249 -0.57735
-0.844769 0.252254 -1 -0.487728 0.145639 -0.57735
-0.814278 -0.839837 -1 -0.470124 -0.48488 -0.57735
1 0.150845 0.706224 0.57735 0.0870905 0.407738
1 0.13152 0.32312 0.57735 0.0759331 0.186553
1 -0.619911 0.701526 0.57735 -0.357906 0.405026
1 -0.625614 0.981684 0.57735 -0.361198 0.566776
1 -0.952432 0.988206 0.57735 -0.549887 0.570541
1 0.608181 0.989123 0.57735 0.351134 0.571071
1 -0.338292 0.859505 0.57735 -0.195313 0.496235
1 0.780347 -0.759824 0.57735 0.450533 -0.438685
1 0.836832 -0.496271 0.57735 0.483145 -0.286522
1 0.405364 -0.240817 0.57735 0.234037 -0.139036
1 -0.22911 0.521465 0.57735 -0.132277 0.301068
1 0.233615 -0.0543329 0.57735 0.134878 -0.0313691
1 0.0377851 0.820759 0.57735 0.0218152 0.473865
1 0.986387 0.548997 0.57735 0.569491 0.316963
1 0.181084 0.87996 0.57735 0.104549 0.508045
1 -0.0931589 0.755804 0.57735 -0.0537853 0.436364
1 0.905772 0.00905549 0.57735 0.522948 0.00522819
1 0.0756731 0.451471 0.57735 0.0436899 0.260657
1 0.315351 0.102503 0.57735 0.182068 0.0591799
1 0.782917 0.739657 0.57735 0.452017 0.427041
1 0.38619 -0.371675 0.57735 0.222967 -0.214587
1 0.291751 0.270515 0.57735 0.168443 0.156182
1 -0.214719 0.674097 0.57735 -0.123968 0.38919
1 0.376732 0.392838 0.57735 0.217506 0.226805
1 0.853122 -0.314917 0.57735 0.49255 -0.181818
1 -0.352771 0.597418 0.57735 -0.203672 0.34492
1 0.369932 -0.103519 0.57735 0.21358 -0.0597665
1 0.598968 0.277295 0.57735 0.345815 0.160097
1 -0.363595 0.732352 0.57735 -0.209922 0.422823
1 -0.501778 0.825872 0.57735 -0.289701 0.476818
1 0.868026 0.91175 0.57735 0.501155 0.526399
1 0.483634 0.886922 0.57735 0.279226 0.512065
1 0.523786 -0.117937 0.57735 0.302408 -0.0680911
1 0.876073 0.300019 0.57735 0.505801 0.173216
1 -0.79825 0.880261 0.57735 -0.46087 0.508219
1 0.539112 -0.302011 0.57735 0.311257 -0.174366
1 0.427316 0.560892 0.57735 0.246711 0.323831
1 0.806248 -0.181641 0.57735 0.465487 -0.10487
1 0.733912 -0.00525128 0.57735 0.423724 -0.00303183
1 -0.477069 0.521587 0.57735 -0.275436 0.301138
1 0.182163 0.0587505 0.57735 0.105172 0.0339196
1 0.677068 -0.12963 0.57735 0.390905 -0.0748421
1 0.257132 0.436571 0.57735 0.148455 0.252054
1 -0.41929 0.998064 0.57735 -0.242077 0.576233
1 0.430315 0.705802 0.57735 0.248443 0.407495
1 0.91412 -0.72854 0.57735 0.527768 -0.420623
1 -0.137651 0.281104 0.57735 -0.079473 0.162295
1 -0.228073 0.374339 0.57735 -0.131678 0.216125
1 0.853135 0.553151 0.57735 0.492558 0.319362
1 0.608724 -0.439897 0.57735 0.351447 -0.253975
1 0.348143 0.874827 0.57735 0.201 0.505082
1 0.688507 0.141022 0.57735 0.39751 0.0814188
1 0.827586 0.170464 0.57735 0.477807 0.0984176
1 0.438205 0.0734397 0.57735 0.252998 0.0424005
1 0.553374 0.632454 0.57735 0.319491 0.365148
1 0.71451 0.608458 0.57735 0.412523 0.351294
1 -0.486629 0.665982 0.57735 -0.280955 0.384505
1 0.997401 0.854868 0.57735 0.57585 0.493559
1 -0.652555 0.843529 0.57735 -0.376753 0.487012
1 0.987218 -0.0924439 0.57735 0.569971 -0.0533725
1 0.20809 0.574791 0.57735 0.120141 0.331856
1 0.790502 -0.612337 0.57735 0.456397 -0.353533
1 0.287376 0.723812 0.57735 0.165917 0.417893
1 -0.350256 0.437426 0.57735 -0.202221 0.252548
1 0.684452 0.462376 0.57735 0.395168 0.266953
1 -0.00417149 0.219823 0.57735 -0.00240841 0.126915
1 0.254897 -0.203339 0.57735 0.147165 -0.117398
1 -0.0514097 0.36907 0.57735 -0.0296814 0.213083
1 0.424132 0.198522 0.57735 0.244873 0.114616
1 -0.104216 0.606288 0.57735 -0.0601689 0.350041
1 0.710315 -0.279718 0.57735 0.410101 -0.161495
1 0.176432 0.191513 0.57735 0.101863 0.11057
1 0.0374449 0.0633017 0.57735 0.0216188 0.0365473
1 -0.739387 0.744236 0.57735 -0.426885 0.429685
1 0.0761324 0.587125 0.57735 0.0439551 0.338977
1 0.746152 0.335669 0.57735 0.430791 0.193799
1 0.648424 0.722453 0.57735 0.374368 0.417109
1 0.926755 0.421413 0.57735 0.535062 0.243303
1 0.970915 -0.219838 0.57735 0.560558 -0.126924
1 0.507058 0.379459 0.57735 0.29275 0.219081
1 0.578477 0.0217067 0.57735 0.333984 0.0125324
1 0.668457 0.862331 0.57735 0.385934 0.497867
1 -0.0285953 -0.317711 0.57735 -0.0165095 -0.183431
1 -0.389621 -0.292567 0.57735 -0.224948 -0.168913
1 -0.877584 -0.79139 0.57735 -0.506673 -0.456909
1 -0.812626 -0.97921 0.57735 -0.46917 -0.565347
1 -0.827316 -0.319506 0.57735 -0.477651 -0.184467
1 -0.738011 -0.84828 0.57735 -0.426091 -0.489755
1 -0.760818 -0.209661 0.57735 -0.439259 -0.121048
1 -0.32855 0.254151 0.57735 -0.189688 0.146734
1 -0.227339 -0.0568406 0.57735 -0.131254 -0.032817
1 -0.464926 -0.444675 0.57735 -0.268425 -0.256733
1 -0.495051 0.359157 0.57735 -0.285818 0.207359
1 0.629993 -0.803173 0.57735 0.363727 -0.463712
1 -0.927686 0.135035 0.57735 -0.5356 0.0779625
1 -0.544681 -0.575543 0.57735 -0.314472 -0.33229
1 -0.0361371 -0.446927 0.57735 -0.0208638 -0.258034
1 -0.708872 0.290917 0.57735 -0.409267 0.167961
1 -0.902862 -0.661614 0.57735 -0.521268 -0.381983
1 -0.633134 0.444783 0.57735 -0.36554 0.256796
1 -0.802767 0.191898 0.57735 -0.463478 0.110793
1 0.195577 -0.74947 0.57735 0.112917 -0.432707
1 -0.979733 -0.257882 0.57735 -0.565649 -0.148889
1 0.332178 -0.75526 0.57735 0.191783 -0.436049
1 -0.873272 0.667806 0.57735 -0.504184 0.385558
1 0.854538 -0.881684 0.57735 0.493368 -0.509041
1 -0.125609 -0.842477 0.57735 -0.0725201 -0.486404
1 -0.917717 0.832591 0.57735 -0.529844 0.480697
1 -0.0177164 -0.603193 0.57735 -0.0102286 -0.348254
1 -0.781882 -0.454383 0.57735 -0.45142 -0.262338
1 -0.769998 -0.688348 0.57735 -0.444559 -0.397418
1 0.462954 -0.815101 0.57735 0.267287 -0.470599
1 -0.879161 0.518712 0.57735 -0.507584 0.299479
1 -0.983005 -0.127842 0.57735 -0.567538 -0.0738097
1 0.400996 -0.646066 0.57735 0.231515 -0.373007
1 -0.692087 -0.048196 0.57735 -0.399577 -0.0278259
1 -0.27948 -0.847091 0.57735 -0.161358 -0.489068
1 0.454027 -0.492419 0.57735 0.262133 -0.284298
1 -0.999629 -0.410272 0.57735 -0.577136 -0.236871
1 -0.0213999 -0.191811 0.57735 -0.0123552 -0.110742
1 -0.151882 -0.172111 0.57735 -0.0876892 -0.0993682
1 -0.227147 0.161019 0.57735 -0.131143 0.0929641
1 0.254422 -0.365379 0.57735 0.146891 -0.210951
1 -0.594179 -0.866609 0.57735 -0.34305 -0.500337
1 -0.285878 -0.456631 0.57735 -0.165052 -0.263636
1 -0.694717 -0.559619 0.57735 -0.401095 -0.323096
1 0.173267 -0.467745 0.57735 0.100036 -0.270052
1 -0.336552 0.0358049 0.57735 -0.194309 0.020672
1 -0.996543 0.397964 0.57735 -0.575355 0.229764
1 -0.79328 0.0426697 0.57735 -0.458 0.0246354
1 -0.135972 0.0691229 0.57735 -0.0785033 0.0399081
1 -0.569251 0.247127 0.57735 -0.328657 0.142679
1 -0.668175 0.5739 0.57735 -0.385771 0.331341
1 -0.47933 -0.167431 0.57735 -0.276741 -0.0966661
1 -0.421928 -0.827018 0.57735 -0.2436 -0.477479
1 0.200898 -0.604028 0.57735 0.115988 -0.348736
1 -0.377758 -0.567561 0.57735 -0.218099 -0.327681
1 -0.073419 -0.72796 0.57735 -0.0423885 -0.420288
1 0.305806 -0.88046 0.57735 0.176557 -0.508334
1 -0.541627 0.0112371 0.57735 -0.312709 0.00648772
1 0.131972 -0.868546 0.57735 0.0761941 -0.501455
1 -0.330175 -0.988278 0.57735 -0.190627 -0.570583
1 0.0852191 -0.0915022 0.57735 0.0492013 -0.0528288
1 -0.636036 0.122127 0.57735 -0.367216 0.0705102
1 0.0702177 -0.699536 0.57735 0.0405402 -0.403878
1 0.469445 -0.952953 0.57735 0.271034 -0.550188
1 -0.618643 -0.166269 0.57735 -0.357174 -0.0959956
1 0.692768 -0.995241 0.57735 0.39997 -0.574603
1 -0.0695459 -0.974362 0.57735 -0.0401523 -0.562548
1 0.560997 -0.610383 0.57735 0.323892 -0.352405
1 -0.60051 -0.711948 0.57735 -0.346705 -0.411043
1 -0.92826 -0.527092 0.57735 -0.535931 -0.304317
1 -0.216426 -0.725777 0.57735 -0.124953 -0.419028
1 -0.172815 -0.585237 0.57735 -0.099775 -0.337887
1 0.106255 -0.280775 0.57735 0.0613463 -0.162106
1 -0.967303 -0.999404 0.57735 -0.558473 -0.577006
1 -0.290462 -0.163528 0.57735 -0.167698 -0.0944129
1 -0.64347 -0.42011 0.57735 -0.371508 -0.24255
1 -0.0537381 -0.0459173 0.57735 -0.0310257 -0.0265104
1 -0.848629 0.321747 0.57735 -0.489956 0.185761
1 -0.99288 0.0124473 0.57735 -0.573239 0.00718643
1 -0.825083 -0.0775995 0.57735 -0.476362 -0.0448021
1 -0.544535 -0.30935 0.57735 -0.314388 -0.178604
1 -0.760345 0.465731 0.57735 -0.438986 0.26889
1 -0.178747 -0.376021 0.57735 -0.1032 -0.217096
1 0.00150344 -0.82921 0.57735 0.000868013 -0.478744
1 -0.434952 0.150626 0.57735 -0.25112 0.0869642
1 0.313603 -0.527713 0.57735 0.181059 -0.304675
-0.0585557 1 0.302335 -0.0338072 0.57735 0.174553
-0.153423 1 0.42139 -0.0885791 0.57735 0.24329
-0.826072 1 0.859532 -0.476933 0.57735 0.496251
0.150532 1 0.516976 0.0869097 0.57735 0.298476
0.0227476 1 0.592843 0.0131333 0.57735 0.342278
-0.695112 1 0.463132 -0.401323 0.57735 0.267389
-0.380494 1 -0.0489648 -0.219679 0.57735 -0.0282698
-0.0404418 1 0.0311306 -0.0233491 0.57735 0.0179733
-0.858796 1 -0.209184 -0.495826 0.57735 -0.120772
0.402563 1 0.604049 0.23242 0.57735 0.348748
-0.310055 1 0.353419 -0.179011 0.57735 0.204047
0.196806 1 0.957673 0.113626 0.57735 0.552913
0.138044 1 0.367392 0.0797 0.57735 0.212114
-0.524395 1 -0.0118936 -0.302759 0.57735 -0.00686677
-0.741025 1 -0.358606 -0.427831 0.57735 -0.207041
-0.43522 1 0.684347 -0.251274 0.57735 0.395108
0.327027 1 0.932771 0.188809 0.57735 0.538536
-0.137451 1 0.577719 -0.0793575 0.57735 0.333546
-0.803649 1 0.228793 -0.463987 0.57735 0.132094
-0.545598 1 -0.237848 -0.315001 0.57735 -0.137322
-0.696462 1 0.803325 -0.402103 0.57735 0.4638
-0.995797 1 -0.206617 -0.574923 0.57735 -0.11929
-0.0832928 1 0.849472 -0.0480891 0.57735 0.490443
0.054181 1 0.890385 0.0312814 0.57735 0.514064
-0.643896 1 0.336047 -0.371754 0.57735 0.194017
-0.265998 1 0.807048 -0.153574 0.57735 0.465949
0.0314887 1 0.195461 0.01818 0.57735 0.11285
-0.979768 1 0.251319 -0.565669 0.57735 0.145099
-0.807341 1 -0.558878 -0.466118 0.57735 -0.322668
-0.470208 1 0.553072 -0.271475 0.57735 0.319316
0.285087 1 0.405797 0.164595 0.57735 0.234287
-0.751394 1 0.660844 -0.433818 0.57735 0.381539
0.281168 1 0.692157 0.162332 0.57735 0.399617
-0.703434 1 -0.182734 -0.406128 0.57735 -0.105501
-0.35586 1 -0.219738 -0.205456 0.57735 -0.126866
-0.0110967 1 0.456169 -0.00640669 0.57735 0.263369
-0.671569 1 0.179206 -0.387731 0.57735 0.103465
0.514487 1 0.689269 0.297039 0.57735 0.39795
0.490635 1 0.859166 0.283268 0.57735 0.49604
-0.295599 1 0.201876 -0.170664 0.57735 0.116553
-0.527696 1 -0.501978 -0.304666 0.57735 -0.289817
0.157268 1 0.670577 0.0907988 0.57735 0.387158
-0.436724 1 -0.370207 -0.252143 0.57735 -0.213739
-0.914712 1 0.750387 -0.52811 0.57735 0.433236
-0.909262 1 -0.342561 -0.524963 0.57735 -0.197778
-0.149933 1 0.141608 -0.0865639 0.57735 0.0817574
-0.395987 1 0.849342 -0.228623 0.57735 0.490368
-0.581186 1 0.70967 -0.335548 0.57735 0.409728
-0.723132 1 0.0364471 -0.417501 0.57735 0.0210427
-0.961088 1 -0.0644967 -0.554884 0.57735 -0.0372372
-0.674436 1 -0.531176 -0.389386 0.57735 -0.306675
-0.260797 1 -0.0963288 -0.150571 0.57735 -0.0556154
-0.455738 1 0.29124 -0.263121 0.57735 0.168148
-0.751855 1 -0.711601 -0.434084 0.57735 -0.410843
-0.636006 1 -0.0796464 -0.367198 0.57735 -0.0459839
0.400086 1 0.475099 0.23099 0.57735 0.274298
-0.910172 1 -0.701922 -0.525488 0.57735 -0.405255
-0.831014 1 0.504277 -0.479786 0.57735 0.291145
-0.859631 1 -0.8209 -0.496308 0.57735 -0.473947
-0.885919 1 0.108606 -0.511486 0.57735 0.0627036
0.711273 1 0.882159 0.410654 0.57735 0.509315
0.593394 1 0.977233 0.342596 0.57735 0.564206
-0.297143 1 0.986013 -0.171556 0.57735 0.569275
0.604893 1 0.799675 0.349235 0.57735 0.461693
0.0259745 1 0.763667 0.0149964 0.57735 0.440903
-0.50777 1 0.432388 -0.293161 0.57735 0.249639
-0.740688 1 0.965033 -0.427637 0.57735 0.557162
-0.521009 1 0.840229 -0.300805 0.57735 0.485106
-0.597551 1 -0.392896 -0.344996 0.57735 -0.226839
0.399259 1 0.764458 0.230513 0.57735 0.44136
-0.785411 1 0.363035 -0.453457 0.57735 0.209598
-0.600679 1 0.999231 -0.346802 0.57735 0.576906
-0.928945 1 -0.48204 -0.536327 0.57735 -0.278306
0.746618 1 0.7596 0.43106 0.57735 0.438555
-0.31859 1 0.587069 -0.183938 0.57735 0.338944
-0.208764 1 0.688737 -0.12053 0.57735 0.397643
-0.9631 1 0.38022 -0.556046 0.57735 0.21952
-0.422786 1 0.0875675 -0.244095 0.57735 0.0505571
0.450418 1 0.992464 0.260049 0.57735 0.572999
0.192174 1 0.798555 0.110951 0.57735 0.461046
-0.130011 1 -0.1003 -0.0750619 0.57735 -0.0579082
-0.974525 1 0.900449 -0.562642 0.57735 0.519875
-0.263747 1 0.0546747 -0.152274 0.57735 0.0315664
-0.832439 1 -0.0470576 -0.480609 0.57735 -0.0271687
0.302526 1 -0.883002 0.174663 0.57735 -0.509801
0.565466 1 0.540443 0.326472 0.57735 0.312025
0.691361 1 -0.443752 0.399158 0.57735 -0.2562
0.644888 1 -0.593692 0.372326 0.57735 -0.342768
-0.82009 1 -0.970995 -0.473479 0.57735 -0.560604
0.992016 1 0.989902 0.572741 0.57735 0.571521
0.115776 1 0.0437965 0.0668436 0.57735 0.0252859
0.25947 1 -0.26523 0.149805 0.57735 -0.153131
-0.240822 1 -0.981889 -0.139039 0.57735 -0.566894
-0.19173 1 -0.397922 -0.110696 0.57735 -0.229741
0.854215 1 -0.747298 0.493182 0.57735 -0.431453
0.408185 1 0.0697227 0.235666 0.57735 0.0402544
0.994898 1 -0.49232 0.574405 0.57735 -0.284241
-0.553104 1 -0.812018 -0.319335 0.57735 -0.468819
0.992937 1 0.304096 0.573273 0.57735 0.17557
0.541888 1 -0.0254385 0.312859 0.57735 -0.0146869
0.985333 1 0.159015 0.568882 0.57735 0.0918071
0.884885 1 -0.14815 0.510889 0.57735 -0.0855345
0.894482 1 0.0327798 0.51643 0.57735 0.0189254
0.84633 1 -0.43319 0.488629 0.57735 -0.250102
-0.112392 1 -0.922962 -0.0648898 0.57735 -0.532872
0.182295 1 -0.382116 0.105248 0.57735 -0.220615
0.236991 1 -0.610042 0.136827 0.57735 -0.352208
0.492217 1 0.19347 0.284181 0.57735 0.1117
0.338025 1 -0.372603 0.195159 0.57735 -0.215123
-0.211208 1 -0.831637 -0.121941 0.57735 -0.480146
0.869117 1 0.345456 0.501785 0.57735 0.199449
0.119694 1 -0.996869 0.0691052 0.57735 -0.575543
-0.176542 1 -0.666511 -0.101927 0.57735 -0.38481
0.0725188 1 -0.501171 0.0418687 0.57735 -0.289351
0.606311 1 0.120544 0.350054 0.57735 0.0695962
0.622806 1 -0.179591 0.359577 0.57735 -0.103687
0.409413 1 -0.667856 0.236375 0.57735 -0.385587
0.0864063 1 -0.232278 0.0498867 0.57735 -0.134106
0.350236 1 0.209493 0.202209 0.57735 0.120951
-0.223639 1 -0.544741 -0.129118 0.57735 -0.314506
-0.35242 1 -0.499569 -0.20347 0.57735 -0.288426
0.166992 1 -0.828799 0.0964129 0.57735 -0.478507
0.937966 1 0.718022 0.541535 0.57735 0.41455
0.540948 1 0.40878 0.312316 0.57735 0.236009
-0.696818 1 -0.867678 -0.402308 0.57735 -0.500954
0.108529 1 -0.628268 0.0626593 0.57735 -0.362731
0.546084 1 -0.871238 0.315282 0.57735 -0.50301
0.87409 1 -0.295609 0.504656 0.57735 -0.17067
-0.00454836 1 -0.996007 -0.002626 0.57735 -0.575045
0.358642 1 -0.504366 0.207062 0.57735 -0.291196
0.353348 1 -0.0481057 0.204005 0.57735 -0.0277738
0.806911 1 0.162443 0.46587 0.57735 0.0937867
0.469955 1 -0.29985 0.271329 0.57735 -0.173118
0.998674 1 -0.360558 0.576585 0.57735 -0.208168
0.754503 1 -0.0598602 0.435612 0.57735 -0.0345603
0.430038 1 0.340621 0.248282 0.57735 0.196657
0.665939 1 -0.311755 0.38448 0.57735 -0.179992
0.59233 1 -0.738987 0.341982 0.57735 -0.426654
0.234406 1 0.133965 0.135334 0.57735 0.0773446
0.552465 1 -0.438097 0.318966 0.57735 -0.252935
0.850208 1 0.481727 0.490868 0.57735 0.278125
-0.306229 1 -0.669113 -0.176801 0.57735 -0.386312
-0.0263779 1 -0.591113 -0.0152293 0.57735 -0.341279
-0.412326 1 -0.751191 -0.238057 0.57735 -0.4337
0.730613 1 0.410055 0.42182 0.57735 0.236745
-0.474381 1 -0.91843 -0.273884 0.57735 -0.530256
0.0439582 1 -0.369453 0.0253793 0.57735 -0.213304
0.485338 1 -0.559195 0.28021 0.57735 -0.322851
-0.0930495 1 -0.764577 -0.0537222 0.57735 -0.441429
0.717446 1 -0.734011 0.414218 0.57735 -0.423782
0.423758 1 -0.816826 0.244657 0.57735 -0.471595
0.763175 1 -0.856055 0.44062 0.57735 -0.494244
-0.0636942 1 -0.214347 -0.0367739 0.57735 -0.123753
0.705307 1 0.251377 0.407209 0.57735 0.145133
0.698778 1 0.553514 0.40344 0.57735 0.319572
-0.338661 1 -0.877483 -0.195526 0.57735 -0.506615
0.0127979 1 -0.105726 0.00738886 0.57735 -0.0610411
0.280499 1 -0.735961 0.161946 0.57735 -0.424907
-0.191923 1 -0.24962 -0.110807 0.57735 -0.144118
0.808154 1 0.642991 0.466588 0.57735 0.371231
0.772672 1 -0.607106 0.446103 0.57735 -0.350513
0.907559 1 -0.914147 0.523979 0.57735 -0.527783
0.756412 1 -0.198218 0.436715 0.57735 -0.114441
0.177139 1 -0.114591 0.102271 0.57735 -0.066159
0.855651 1 0.831004 0.494011 0.57735 0.47978
0.031608 1 -0.851586 0.0182489 0.57735 -0.491664
-0.593377 1 -0.675801 -0.342586 0.57735 -0.390174
0.456584 1 -0.148158 0.263609 0.57735 -0.0855392
-0.0617595 1 -0.468258 -0.0356568 0.57735 -0.270349
-0.467992 1 -0.62183 -0.270195 0.57735 -0.359014
